<svg width="60" height="58" viewBox="0 0 60 58" fill="none" xmlns="http://www.w3.org/2000/svg">
<path fill-rule="evenodd" clip-rule="evenodd" d="M0.864136 0.5H51.2187L51.5763 1.49091L50.1653 2C51.5763 1.49091 51.5762 1.49069 51.5763 1.49091L51.5767 1.49201L51.5941 1.54039L51.644 1.68029C51.6876 1.80283 51.7514 1.98305 51.833 2.21569C51.996 2.68094 52.23 3.35604 52.5149 4.19896C53.0847 5.88432 53.859 8.243 54.678 10.9381C56.309 16.3057 58.1432 23.0915 58.8659 28.5556C59.5816 33.967 59.5774 40.8807 59.4022 46.3867C59.3142 49.1512 59.1823 51.5825 59.0724 53.3231C59.0174 54.1937 58.9679 54.8922 58.932 55.374C58.9141 55.6149 58.8996 55.8016 58.8895 55.9287L58.8778 56.0738L58.8747 56.1115L58.8737 56.1241C58.8737 56.1243 58.8736 56.1252 57.3788 56L58.8736 56.1252L58.7584 57.5H8.58258L8.72246 55.8298L8.73358 55.6915C8.74329 55.569 8.75743 55.3871 8.77499 55.1513C8.8101 54.6796 8.85885 53.9924 8.91305 53.1341C9.0215 51.417 9.15166 49.0177 9.2384 46.2912C9.41264 40.8152 9.40842 34.1051 8.72648 28.949C8.03771 23.7413 6.26512 17.151 4.64227 11.8104C3.83429 9.15137 3.06989 6.82293 2.50764 5.1597C2.22659 4.32832 1.99625 3.66376 1.83649 3.20792C1.75662 2.98002 1.6944 2.80433 1.65233 2.6861L1.60464 2.55252L1.58917 2.50946L0.864136 0.5ZM5.11201 3.5C5.18647 3.71776 5.26585 3.95111 5.34964 4.19896C5.91937 5.88432 6.69371 8.243 7.51268 10.9381C9.14372 16.3057 10.9779 23.0915 11.7006 28.5556C12.4163 33.967 12.4121 40.8807 12.2369 46.3867C12.1489 49.1512 12.017 51.5825 11.9071 53.3231C11.8794 53.7608 11.8532 54.155 11.8293 54.5H55.9874C56.0145 54.1146 56.0454 53.656 56.0784 53.1341C56.1868 51.417 56.317 49.0177 56.4037 46.2912C56.5779 40.8152 56.5737 34.1051 55.8918 28.949C55.203 23.7413 53.4304 17.151 51.8076 11.8104C50.9996 9.15137 50.2352 6.82293 49.6729 5.1597C49.447 4.49143 49.2539 3.93094 49.1038 3.5H5.11201Z" fill="#ffdf87"/>
</svg>
