<svg width="67" height="55" viewBox="0 0 67 55" fill="none" xmlns="http://www.w3.org/2000/svg">
<path fill-rule="evenodd" clip-rule="evenodd" d="M33.5 3.5C16.7483 3.5 3.5 15.4345 3.5 29.7723C3.5 36.9076 6.74836 42.2666 12.0716 45.8989C17.4505 49.5692 25.0018 51.5 33.5 51.5C41.9982 51.5 49.5495 49.5692 54.9284 45.8989C60.2516 42.2666 63.5 36.9076 63.5 29.7723C63.5 15.4345 50.2517 3.5 33.5 3.5ZM0.5 29.7723C0.5 13.4337 15.4577 0.5 33.5 0.5C51.5423 0.5 66.5 13.4337 66.5 29.7723C66.5 37.9752 62.6968 44.23 56.6193 48.377C50.5974 52.486 42.3987 54.5 33.5 54.5C24.6013 54.5 16.4026 52.486 10.3807 48.377C4.30316 44.23 0.5 37.9752 0.5 29.7723Z" fill="#ffdf87"/>
</svg>
